<svg width="375" height="205" viewBox="0 0 375 205" fill="none" xmlns="http://www.w3.org/2000/svg">
<path d="M9.90157 7.68731C12.8674 7.68731 14.721 9.84425 14.8558 13.0123L12.1933 13.8211C12.0922 11.7316 11.3171 10.6868 9.76676 10.6868C7.77833 10.6868 6.73357 12.1697 6.36284 15.0007L4.91365 25.8191C4.87995 26.1561 4.84624 26.5268 4.84624 26.8301C4.84624 28.7175 5.62139 29.897 7.3065 29.897C8.92421 29.897 9.86787 29.0545 10.6093 26.4931L13.137 27.2346C12.0585 31.2114 9.93527 32.7954 6.73357 32.7954C3.36335 32.7954 1.47603 30.5374 1.47603 27.0324C1.47603 26.6279 1.50973 25.9876 1.57713 25.5832L2.99263 15.0007C3.59926 10.4509 6.12693 7.68731 9.90157 7.68731ZM18.1968 8.02433H28.6782L28.3074 11.1249H21.1963L20.2526 18.4046H25.8809L25.5776 21.1682H19.9156L18.8708 29.3915H26.3864L26.0494 32.4584H15.1973L18.1968 8.02433ZM31.7237 8.02433H34.9928L32.3304 29.3241H39.1719L38.8349 32.4584H28.7242L31.7237 8.02433ZM44.3291 8.02433H54.8105L54.4398 11.1249H47.3286L46.385 18.4046H52.0132L51.7099 21.1682H46.0479L45.0032 29.3915H52.5188L52.1817 32.4584H41.3296L44.3291 8.02433ZM63.3832 8.02433C66.9894 8.02433 68.6071 9.87795 68.6071 12.9448C68.6071 16.6521 67.2927 18.809 65.2031 19.6179V19.6853C67.0905 20.2245 68.0004 21.7748 68.0004 24.134C68.0004 24.5384 68.0004 24.9765 67.933 25.4147C67.3601 30.0318 65.6413 32.4584 61.0915 32.4584H54.8566L57.8561 8.02433H63.3832ZM62.4059 21.2356H59.5075L58.4627 29.4589H61.3274C63.2484 29.4589 64.1921 28.5827 64.6639 25.2461C64.7313 24.7069 64.765 24.2351 64.765 23.8306C64.765 21.8422 63.9562 21.2356 62.4059 21.2356ZM63.181 11.0575H60.7882L59.8108 18.5057H62.2373C64.2595 18.5057 65.0346 17.2587 65.3716 14.63C65.4391 14.1918 65.4728 13.7874 65.4728 13.4504C65.4728 11.7316 64.765 11.0575 63.181 11.0575ZM79.2298 32.4584L76.7696 21.977H74.68L73.3656 32.4584H70.0291L73.0286 8.02433H79.0276C82.4315 8.02433 83.9818 9.77684 83.9818 13.1471C83.9818 17.798 82.263 20.4941 79.9039 21.2356L82.7686 32.4584H79.2298ZM76.0281 11.0238L74.9833 19.2472H77.4099C79.4657 19.2472 80.6453 17.5957 80.6453 13.4841C80.6453 11.6305 79.9713 11.0238 78.4884 11.0238H76.0281ZM88.7773 26.4594L86.8563 32.4584H83.486L92.0801 8.02433H95.9895L98.6183 32.4584H95.1807L94.7426 26.4594H88.7773ZM93.563 11.3945L89.6198 23.7632H94.5403L93.6304 11.3945H93.563ZM101.066 8.02433H113.031L112.66 11.1249H108.346L105.717 32.4584H102.381L105.01 11.1249H100.696L101.066 8.02433ZM115.288 8.02433H125.769L125.399 11.1249H118.287L117.344 18.4046H122.972L122.669 21.1682H117.007L115.962 29.3915H123.478L123.141 32.4584H112.288L115.288 8.02433ZM147.019 8.02433L139.334 24.6395L138.391 32.4584H135.054L135.998 24.6732L132.459 8.02433H136.133L138.121 20.8986H138.189L143.379 8.02433H147.019ZM154.724 7.68731C158.499 7.68731 160.42 9.81055 160.42 13.5178C160.42 13.9896 160.386 14.4951 160.319 15.0007L158.903 25.4821C158.297 30.0993 155.87 32.7954 151.624 32.7954C147.849 32.7954 145.928 30.6722 145.928 26.965C145.928 26.4931 145.962 25.9876 146.029 25.4821L147.445 15.0007C148.051 10.3835 150.478 7.68731 154.724 7.68731ZM154.387 10.6868C152.298 10.6868 151.186 11.9338 150.781 15.0007L149.366 25.4821C149.298 25.9202 149.298 26.3583 149.298 26.729C149.298 28.9197 150.141 29.8633 151.961 29.8633C154.05 29.8633 155.129 28.5827 155.533 25.4821L156.949 15.0007C157.016 14.5289 157.05 14.0907 157.05 13.72C157.05 11.5631 156.173 10.6868 154.387 10.6868ZM173.662 8.02433H176.998L174.74 25.6506C174.134 30.2678 171.64 32.7954 167.494 32.7954C163.821 32.7954 161.765 30.807 161.765 27.1335C161.765 26.6953 161.799 26.2572 161.866 25.7854L164.124 8.02433H167.494L165.203 25.7854C165.169 26.1224 165.135 26.4257 165.135 26.6953C165.135 28.886 166.281 29.6274 167.865 29.6274C169.854 29.6274 171 28.5827 171.37 25.7854L173.662 8.02433ZM186.754 32.4584L184.294 21.977H182.204L180.89 32.4584H177.554L180.553 8.02433H186.552C189.956 8.02433 191.506 9.77684 191.506 13.1471C191.506 17.798 189.787 20.4941 187.428 21.2356L190.293 32.4584H186.754ZM183.553 11.0238L182.508 19.2472H184.934C186.99 19.2472 188.17 17.5957 188.17 13.4841C188.17 11.6305 187.496 11.0238 186.013 11.0238H183.553ZM201.024 8.02433H204.294L201.631 29.3241H208.473L208.136 32.4584H198.025L201.024 8.02433ZM213.63 8.02433H224.111L223.741 11.1249H216.629L215.686 18.4046H221.314L221.011 21.1682H215.349L214.304 29.3915H221.819L221.482 32.4584H210.63L213.63 8.02433ZM232.959 7.68731C236.127 7.68731 238.149 9.64204 238.351 13.0797L235.723 13.8885C235.386 11.5968 234.408 10.6868 232.858 10.6868C230.499 10.6868 229.319 12.2708 228.881 15.5399L227.567 25.0439C227.499 25.4484 227.466 26.0887 227.466 26.4257C227.466 28.6501 228.51 29.7285 230.364 29.7285C231.712 29.7285 232.689 29.2567 233.633 27.7401L234.24 22.887H231.914L232.218 20.4267H237.475L236.026 32.4584H233.296L233.498 30.8407C232.285 32.1214 230.836 32.7954 229.151 32.7954C225.983 32.7954 224.062 30.8407 224.062 26.9312C224.062 26.4594 224.095 25.9202 224.163 25.3809L225.511 15.5062C226.151 10.8216 228.51 7.68731 232.959 7.68731ZM243.07 26.4594L241.149 32.4584H237.779L246.373 8.02433H250.282L252.911 32.4584H249.473L249.035 26.4594H243.07ZM247.856 11.3945L243.913 23.7632H248.833L247.923 11.3945H247.856ZM258.094 8.02433H261.363L258.701 29.3241H265.543L265.206 32.4584H255.095L258.094 8.02433ZM282.331 32.4584L279.871 21.977H277.782L276.467 32.4584H273.131L276.13 8.02433H282.129C285.533 8.02433 287.083 9.77684 287.083 13.1471C287.083 17.798 285.365 20.4941 283.006 21.2356L285.87 32.4584H282.331ZM279.13 11.0238L278.085 19.2472H280.512C282.567 19.2472 283.747 17.5957 283.747 13.4841C283.747 11.6305 283.073 11.0238 281.59 11.0238H279.13ZM291.576 8.02433H294.912L291.913 32.4584H288.576L291.576 8.02433ZM305.136 7.68731C308.304 7.68731 310.326 9.64204 310.528 13.0797L307.899 13.8885C307.562 11.5968 306.585 10.6868 305.035 10.6868C302.675 10.6868 301.496 12.2708 301.058 15.5399L299.743 25.0439C299.676 25.4484 299.642 26.0887 299.642 26.4257C299.642 28.6501 300.687 29.7285 302.541 29.7285C303.889 29.7285 304.866 29.2567 305.81 27.7401L306.416 22.887H304.091L304.394 20.4267H309.652L308.203 32.4584H305.473L305.675 30.8407C304.462 32.1214 303.012 32.7954 301.327 32.7954C298.159 32.7954 296.238 30.8407 296.238 26.9312C296.238 26.4594 296.272 25.9202 296.339 25.3809L297.688 15.5062C298.328 10.8216 300.687 7.68731 305.136 7.68731ZM314.539 8.02433H317.875L316.595 18.3035H322.358L323.672 8.02433H327.009L324.009 32.4584H320.673L322.021 21.4041H316.258L314.876 32.4584H311.539L314.539 8.02433ZM329.28 8.02433H341.244L340.874 11.1249H336.56L333.931 32.4584H330.595L333.223 11.1249H328.909L329.28 8.02433ZM347.382 8.02433H359.346L358.975 11.1249H354.662L352.033 32.4584H348.696L351.325 11.1249H347.011L347.382 8.02433ZM367.37 7.68731C371.145 7.68731 373.066 9.81055 373.066 13.5178C373.066 13.9896 373.032 14.4951 372.965 15.0007L371.55 25.4821C370.943 30.0993 368.516 32.7954 364.27 32.7954C360.495 32.7954 358.574 30.6722 358.574 26.965C358.574 26.4931 358.608 25.9876 358.675 25.4821L360.091 15.0007C360.697 10.3835 363.124 7.68731 367.37 7.68731ZM367.033 10.6868C364.944 10.6868 363.832 11.9338 363.427 15.0007L362.012 25.4821C361.944 25.9202 361.944 26.3583 361.944 26.729C361.944 28.9197 362.787 29.8633 364.607 29.8633C366.696 29.8633 367.775 28.5827 368.179 25.4821L369.595 15.0007C369.662 14.5289 369.696 14.0907 369.696 13.72C369.696 11.5631 368.82 10.6868 367.033 10.6868Z" fill="white"/>
<path d="M8.68149 45.7843H23.3775L20.2975 70.1603H26.9855L30.0655 45.7843H44.6735L36.8415 109.584H22.2335L25.4895 83.1843H18.8015L15.5455 109.584H0.849475L8.68149 45.7843ZM68.2967 44.9043C79.1208 44.9043 84.5768 50.8883 84.5768 61.3603C84.5768 62.6803 84.4888 64.0883 84.3128 65.5843L81.0568 89.7844C79.2968 102.896 72.4328 110.464 60.2007 110.464C49.4647 110.464 44.0087 104.568 44.0087 94.0964C44.0087 92.7764 44.0967 91.2804 44.2727 89.7844L47.5287 65.5843C49.2887 52.4723 56.1527 44.9043 68.2967 44.9043ZM66.9767 57.4883C64.2487 57.4883 63.1047 58.9843 62.2247 65.5843L58.9687 89.7844C58.7047 91.4564 58.7047 92.7764 58.7047 93.8324C58.7047 97.1764 59.5847 98.2324 61.6087 98.2324C64.3367 98.2324 65.4807 96.4724 66.3607 89.7844L69.6168 65.5843C69.8808 63.9123 69.8808 62.5043 69.8808 61.4483C69.8808 58.2803 69.0007 57.4883 66.9767 57.4883ZM91.7832 45.7843H102.431L111.407 73.4163H111.583L114.927 45.7843H127.775L119.943 109.584H110.175L100.495 80.0163H100.319L96.7992 109.584H83.9511L91.7832 45.7843ZM151.398 44.9043C162.222 44.9043 167.678 50.8883 167.678 61.3603C167.678 62.6803 167.59 64.0883 167.414 65.5843L164.158 89.7844C162.398 102.896 155.534 110.464 143.302 110.464C132.566 110.464 127.11 104.568 127.11 94.0964C127.11 92.7764 127.198 91.2804 127.374 89.7844L130.63 65.5843C132.39 52.4723 139.254 44.9043 151.398 44.9043ZM150.078 57.4883C147.35 57.4883 146.206 58.9843 145.326 65.5843L142.07 89.7844C141.806 91.4564 141.806 92.7764 141.806 93.8324C141.806 97.1764 142.686 98.2324 144.71 98.2324C147.438 98.2324 148.582 96.4724 149.462 89.7844L152.718 65.5843C152.982 63.9123 152.982 62.5043 152.982 61.4483C152.982 58.2803 152.102 57.4883 150.078 57.4883ZM196.357 45.7843H211.053L205.421 89.7844C203.661 103.424 196.357 110.464 184.741 110.464C174.181 110.464 168.373 105.096 168.373 94.4484C168.373 93.2164 168.461 91.8084 168.637 90.4004L174.269 45.7843H188.965L183.333 90.4884C183.157 91.5444 183.157 92.2484 183.157 92.9524C183.157 95.9444 184.213 97.0884 186.237 97.0884C188.701 97.0884 190.109 95.5044 190.725 90.4884L196.357 45.7843ZM230.728 109.584L228.088 85.0323H226.68L223.6 109.584H208.904L216.736 45.7843H234.688C245.072 45.7843 249.56 50.8883 249.56 60.3923C249.56 70.7763 246.128 77.9923 241.464 80.8083L245.864 109.584H230.728ZM229.936 58.2803L227.912 73.7683H230.552C233.016 73.7683 233.808 72.1843 234.6 66.1123C234.864 64.2643 234.952 62.8563 234.952 61.8003C234.952 58.8083 234.072 58.2803 232.224 58.2803H229.936ZM265.491 45.7843H298.843L297.347 58.8963H288.019L281.683 109.584H266.987L273.323 58.8963H263.907L265.491 45.7843ZM302.674 45.7843H317.37L314.29 70.1603H320.978L324.058 45.7843H338.666L330.834 109.584H316.226L319.482 83.1843H312.794L309.538 109.584H294.842L302.674 45.7843ZM345.041 45.7843H374.257L372.761 58.8083H358.153L356.569 70.9523H367.041L365.721 82.3923H355.161L353.313 96.7364H368.273L366.777 109.584H337.209L345.041 45.7843ZM27.4234 197.584L24.2217 167.809H22.5141L18.7788 197.584H0.955982L10.4544 120.21H32.226C44.8194 120.21 50.2623 126.4 50.2623 137.926C50.2623 150.519 46.1 159.271 40.4437 162.686L45.7799 197.584H27.4234ZM26.4629 135.365L24.0083 154.148H27.21C30.1982 154.148 31.1587 152.227 32.1193 144.863C32.4394 142.622 32.5462 140.914 32.5462 139.633C32.5462 136.005 31.4789 135.365 29.2377 135.365H26.4629ZM59.0219 120.21H94.4541L92.6398 136.005H74.9237L73.0027 150.733H85.7028L84.102 164.607H71.2951L69.0539 182.003H87.1969L85.3826 197.584H49.5235L59.0219 120.21ZM108.616 182.536L104.774 197.584H87.0577L111.391 120.21H132.522L137.965 197.584H119.608V182.536H108.616ZM118.968 141.661L112.031 169.303H119.181V141.661H118.968ZM151.154 120.21H168.444L160.759 181.576H177.729L175.914 197.584H141.656L151.154 120.21ZM241.775 197.584H222.778L217.762 168.129L214.881 173.465L211.893 197.584H194.497L203.995 120.21H221.391L217.549 151.266L230.996 120.21H250.313L230.676 153.721L241.775 197.584ZM254.654 120.21H272.477L262.979 197.584H245.156L254.654 120.21ZM280.598 120.21H293.512L304.398 153.721H304.611L308.667 120.21H324.248L314.75 197.584H302.904L291.164 161.725H290.951L286.682 197.584H271.1L280.598 120.21ZM353.325 119.143C364.317 119.143 371.681 125.653 371.788 138.566L357.807 142.515C357.273 136.112 355.459 134.404 352.791 134.404C348.415 134.404 346.494 137.072 345.427 145.183L341.585 173.251C341.478 174.319 341.372 175.172 341.372 176.026C341.372 181.149 343.293 183.07 346.601 183.07C348.202 183.07 349.483 182.536 350.977 180.936L352.471 169.516H348.095L349.589 157.243H369.333L364.531 197.584H350.016L350.443 194.596C347.135 197.157 343.399 198.652 339.237 198.652C329.952 198.652 323.442 192.889 323.442 179.335C323.442 177.52 323.442 175.599 323.762 173.572L327.604 145.076C329.739 129.495 337.85 119.143 353.325 119.143Z" fill="white"/>
</svg>
