<svg width="374" height="206" viewBox="0 0 374 206" fill="none" xmlns="http://www.w3.org/2000/svg">
<path d="M45.9545 7.22891C48.9203 7.22891 50.7739 9.38585 50.9087 12.5538L48.2462 13.3627C48.1451 11.2732 47.37 10.2284 45.8197 10.2284C43.8312 10.2284 42.7865 11.7113 42.4157 14.5423L40.9666 25.3607C40.9328 25.6977 40.8991 26.0684 40.8991 26.3717C40.8991 28.2591 41.6743 29.4386 43.3594 29.4386C44.9771 29.4386 45.9208 28.5961 46.6622 26.0347L49.1899 26.7762C48.1114 30.753 45.9882 32.337 42.7865 32.337C39.4163 32.337 37.5289 30.079 37.5289 26.574C37.5289 26.1695 37.5626 25.5292 37.63 25.1248L39.0455 14.5423C39.6522 9.99248 42.1798 7.22891 45.9545 7.22891ZM54.2497 7.56593H64.7311L64.3603 10.6665H57.2492L56.3055 17.9462H61.9338L61.6305 20.7098H55.9685L54.9237 28.9331H62.4393L62.1023 32H51.2502L54.2497 7.56593ZM67.7766 7.56593H71.0457L68.3833 28.8657H75.2248L74.8878 32H64.7771L67.7766 7.56593ZM80.382 7.56593H90.8634L90.4927 10.6665H83.3815L82.4379 17.9462H88.0661L87.7628 20.7098H82.1008L81.0561 28.9331H88.5717L88.2346 32H77.3825L80.382 7.56593ZM99.4361 7.56593C103.042 7.56593 104.66 9.41955 104.66 12.4864C104.66 16.1937 103.346 18.3506 101.256 19.1595V19.2269C103.143 19.7661 104.053 21.3164 104.053 23.6756C104.053 24.08 104.053 24.5181 103.986 24.9562C103.413 29.5734 101.694 32 97.1444 32H90.9095L93.909 7.56593H99.4361ZM98.4588 20.7772H95.5604L94.5156 29.0005H97.3803C99.3013 29.0005 100.245 28.1243 100.717 24.7877C100.784 24.2485 100.818 23.7767 100.818 23.3722C100.818 21.3838 100.009 20.7772 98.4588 20.7772ZM99.2339 10.5991H96.8411L95.8637 18.0473H98.2902C100.312 18.0473 101.088 16.8003 101.425 14.1716C101.492 13.7334 101.526 13.329 101.526 12.992C101.526 11.2732 100.818 10.5991 99.2339 10.5991ZM115.283 32L112.822 21.5186H110.733L109.419 32H106.082L109.082 7.56593H115.081C118.484 7.56593 120.035 9.31844 120.035 12.6887C120.035 17.3396 118.316 20.0357 115.957 20.7772L118.821 32H115.283ZM112.081 10.5654L111.036 18.7887H113.463C115.519 18.7887 116.698 17.1373 116.698 13.0257C116.698 11.1721 116.024 10.5654 114.541 10.5654H112.081ZM124.83 26.001L122.909 32H119.539L128.133 7.56593H132.042L134.671 32H131.234L130.795 26.001H124.83ZM129.616 10.9361L125.673 23.3048H130.593L129.683 10.9361H129.616ZM137.119 7.56593H149.084L148.713 10.6665H144.399L141.77 32H138.434L141.063 10.6665H136.749L137.119 7.56593ZM151.341 7.56593H161.822L161.452 10.6665H154.34L153.397 17.9462H159.025L158.722 20.7098H153.06L152.015 28.9331H159.531L159.193 32H148.341L151.341 7.56593ZM183.071 7.56593L175.387 24.1811L174.444 32H171.107L172.051 24.2148L168.512 7.56593H172.186L174.174 20.4402H174.242L179.432 7.56593H183.071ZM190.777 7.22891C194.552 7.22891 196.473 9.35214 196.473 13.0594C196.473 13.5312 196.439 14.0367 196.372 14.5423L194.956 25.0237C194.35 29.6408 191.923 32.337 187.677 32.337C183.902 32.337 181.981 30.2138 181.981 26.5065C181.981 26.0347 182.015 25.5292 182.082 25.0237L183.497 14.5423C184.104 9.92508 186.531 7.22891 190.777 7.22891ZM190.44 10.2284C188.351 10.2284 187.238 11.4754 186.834 14.5423L185.419 25.0237C185.351 25.4618 185.351 25.8999 185.351 26.2706C185.351 28.4613 186.194 29.4049 188.014 29.4049C190.103 29.4049 191.182 28.1243 191.586 25.0237L193.002 14.5423C193.069 14.0704 193.103 13.6323 193.103 13.2616C193.103 11.1047 192.226 10.2284 190.44 10.2284ZM209.715 7.56593H213.051L210.793 25.1922C210.187 29.8094 207.693 32.337 203.547 32.337C199.874 32.337 197.818 30.3486 197.818 26.6751C197.818 26.2369 197.852 25.7988 197.919 25.327L200.177 7.56593H203.547L201.256 25.327C201.222 25.664 201.188 25.9673 201.188 26.2369C201.188 28.4276 202.334 29.169 203.918 29.169C205.907 29.169 207.052 28.1243 207.423 25.327L209.715 7.56593ZM222.807 32L220.347 21.5186H218.257L216.943 32H213.606L216.606 7.56593H222.605C226.009 7.56593 227.559 9.31844 227.559 12.6887C227.559 17.3396 225.84 20.0357 223.481 20.7772L226.346 32H222.807ZM219.605 10.5654L218.561 18.7887H220.987C223.043 18.7887 224.223 17.1373 224.223 13.0257C224.223 11.1721 223.549 10.5654 222.066 10.5654H219.605ZM243.279 32L240.818 21.5186H238.729L237.414 32H234.078L237.077 7.56593H243.076C246.48 7.56593 248.031 9.31844 248.031 12.6887C248.031 17.3396 246.312 20.0357 243.953 20.7772L246.817 32H243.279ZM240.077 10.5654L239.032 18.7887H241.459C243.514 18.7887 244.694 17.1373 244.694 13.0257C244.694 11.1721 244.02 10.5654 242.537 10.5654H240.077ZM252.523 7.56593H255.859L252.86 32H249.523L252.523 7.56593ZM266.083 7.22891C269.251 7.22891 271.273 9.18363 271.475 12.6213L268.846 13.4301C268.509 11.1384 267.532 10.2284 265.982 10.2284C263.623 10.2284 262.443 11.8124 262.005 15.0815L260.69 24.5855C260.623 24.9899 260.589 25.6303 260.589 25.9673C260.589 28.1917 261.634 29.2701 263.488 29.2701C264.836 29.2701 265.813 28.7983 266.757 27.2817L267.363 22.4286H265.038L265.341 19.9683H270.599L269.15 32H266.42L266.622 30.3823C265.409 31.663 263.96 32.337 262.274 32.337C259.106 32.337 257.185 30.3823 257.185 26.4728C257.185 26.001 257.219 25.4618 257.287 24.9225L258.635 15.0478C259.275 10.3632 261.634 7.22891 266.083 7.22891ZM275.486 7.56593H278.822L277.542 17.8451H283.305L284.619 7.56593H287.956L284.956 32H281.62L282.968 20.9457H277.205L275.823 32H272.486L275.486 7.56593ZM290.227 7.56593H302.192L301.821 10.6665H297.507L294.878 32H291.542L294.17 10.6665H289.857L290.227 7.56593ZM308.329 7.56593H320.293L319.923 10.6665H315.609L312.98 32H309.643L312.272 10.6665H307.958L308.329 7.56593ZM328.318 7.22891C332.092 7.22891 334.013 9.35214 334.013 13.0594C334.013 13.5312 333.979 14.0367 333.912 14.5423L332.497 25.0237C331.89 29.6408 329.463 32.337 325.217 32.337C321.442 32.337 319.521 30.2138 319.521 26.5065C319.521 26.0347 319.555 25.5292 319.622 25.0237L321.038 14.5423C321.644 9.92508 324.071 7.22891 328.318 7.22891ZM327.98 10.2284C325.891 10.2284 324.779 11.4754 324.374 14.5423L322.959 25.0237C322.891 25.4618 322.891 25.8999 322.891 26.2706C322.891 28.4613 323.734 29.4049 325.554 29.4049C327.643 29.4049 328.722 28.1243 329.126 25.0237L330.542 14.5423C330.609 14.0704 330.643 13.6323 330.643 13.2616C330.643 11.1047 329.767 10.2284 327.98 10.2284Z" fill="white"/>
<path d="M8.18149 47.1999H22.8775L19.7975 71.5759H26.4855L29.5655 47.1999H44.1735L36.3415 111H21.7335L24.9895 84.6H18.3015L15.0455 111H0.349475L8.18149 47.1999ZM67.7967 46.3199C78.6208 46.3199 84.0768 52.3039 84.0768 62.7759C84.0768 64.0959 83.9888 65.5039 83.8128 66.9999L80.5568 91.2C78.7968 104.312 71.9328 111.88 59.7007 111.88C48.9647 111.88 43.5087 105.984 43.5087 95.512C43.5087 94.192 43.5967 92.696 43.7727 91.2L47.0287 66.9999C48.7887 53.8879 55.6527 46.3199 67.7967 46.3199ZM66.4767 58.9039C63.7487 58.9039 62.6047 60.3999 61.7247 66.9999L58.4687 91.2C58.2047 92.872 58.2047 94.192 58.2047 95.248C58.2047 98.592 59.0847 99.648 61.1087 99.648C63.8367 99.648 64.9807 97.888 65.8607 91.2L69.1168 66.9999C69.3808 65.3279 69.3808 63.9199 69.3808 62.8639C69.3808 59.6959 68.5007 58.9039 66.4767 58.9039ZM91.2832 47.1999H101.931L110.907 74.832H111.083L114.427 47.1999H127.275L119.443 111H109.675L99.9952 81.432H99.8192L96.2992 111H83.4511L91.2832 47.1999ZM150.898 46.3199C161.722 46.3199 167.178 52.3039 167.178 62.7759C167.178 64.0959 167.09 65.5039 166.914 66.9999L163.658 91.2C161.898 104.312 155.034 111.88 142.802 111.88C132.066 111.88 126.61 105.984 126.61 95.512C126.61 94.192 126.698 92.696 126.874 91.2L130.13 66.9999C131.89 53.8879 138.754 46.3199 150.898 46.3199ZM149.578 58.9039C146.85 58.9039 145.706 60.3999 144.826 66.9999L141.57 91.2C141.306 92.872 141.306 94.192 141.306 95.248C141.306 98.592 142.186 99.648 144.21 99.648C146.938 99.648 148.082 97.888 148.962 91.2L152.218 66.9999C152.482 65.3279 152.482 63.9199 152.482 62.8639C152.482 59.6959 151.602 58.9039 149.578 58.9039ZM195.857 47.1999H210.553L204.921 91.2C203.161 104.84 195.857 111.88 184.241 111.88C173.681 111.88 167.873 106.512 167.873 95.864C167.873 94.632 167.961 93.224 168.137 91.816L173.769 47.1999H188.465L182.833 91.904C182.657 92.96 182.657 93.664 182.657 94.368C182.657 97.36 183.713 98.504 185.737 98.504C188.201 98.504 189.609 96.92 190.225 91.904L195.857 47.1999ZM230.228 111L227.588 86.448H226.18L223.1 111H208.404L216.236 47.1999H234.188C244.572 47.1999 249.06 52.3039 249.06 61.8079C249.06 72.1919 245.628 79.408 240.964 82.224L245.364 111H230.228ZM229.436 59.6959L227.412 75.184H230.052C232.516 75.184 233.308 73.6 234.1 67.5279C234.364 65.6799 234.452 64.2719 234.452 63.2159C234.452 60.2239 233.572 59.6959 231.724 59.6959H229.436ZM264.991 47.1999H298.343L296.847 60.3119H287.519L281.183 111H266.487L272.823 60.3119H263.407L264.991 47.1999ZM302.174 47.1999H316.87L313.79 71.5759H320.478L323.558 47.1999H338.166L330.334 111H315.726L318.982 84.6H312.294L309.038 111H294.342L302.174 47.1999ZM344.541 47.1999H373.757L372.261 60.2239H357.653L356.069 72.3679H366.541L365.221 83.808H354.661L352.813 98.152H367.773L366.277 111H336.709L344.541 47.1999ZM26.9234 199L23.7217 169.224H22.0141L18.2788 199H0.455982L9.95438 121.625H31.726C44.3194 121.625 49.7623 127.815 49.7623 139.342C49.7623 151.935 45.6 160.686 39.9437 164.101L45.2799 199H26.9234ZM25.9629 136.78L23.5083 155.564H26.71C29.6982 155.564 30.6587 153.642 31.6193 146.279C31.9394 144.037 32.0462 142.33 32.0462 141.049C32.0462 137.421 30.9789 136.78 28.7377 136.78H25.9629ZM58.5219 121.625H93.9541L92.1398 137.421H74.4237L72.5027 152.148H85.2028L83.602 166.022H70.7951L68.5539 183.418H86.6969L84.8826 199H49.0235L58.5219 121.625ZM108.116 183.952L104.274 199H86.5577L110.891 121.625H132.022L137.465 199H119.108V183.952H108.116ZM118.468 143.077L111.531 170.718H118.681V143.077H118.468ZM150.654 121.625H167.944L160.259 182.991H177.229L175.414 199H141.156L150.654 121.625ZM241.275 199H222.278L217.262 169.544L214.381 174.88L211.393 199H193.997L203.495 121.625H220.891L217.049 152.682L230.496 121.625H249.813L230.176 155.137L241.275 199ZM254.154 121.625H271.977L262.479 199H244.656L254.154 121.625ZM280.098 121.625H293.012L303.898 155.137H304.111L308.167 121.625H323.748L314.25 199H302.404L290.664 163.141H290.451L286.182 199H270.6L280.098 121.625ZM352.825 120.558C363.817 120.558 371.181 127.068 371.288 139.982L357.307 143.931C356.773 137.527 354.959 135.82 352.291 135.82C347.915 135.82 345.994 138.488 344.927 146.599L341.085 174.667C340.978 175.734 340.872 176.588 340.872 177.442C340.872 182.565 342.793 184.486 346.101 184.486C347.702 184.486 348.983 183.952 350.477 182.351L351.971 170.932H347.595L349.089 158.659H368.833L364.031 199H349.516L349.943 196.012C346.635 198.573 342.899 200.067 338.737 200.067C329.452 200.067 322.942 194.304 322.942 180.75C322.942 178.936 322.942 177.015 323.262 174.987L327.104 146.492C329.239 130.91 337.35 120.558 352.825 120.558Z" fill="white"/>
</svg>
