<svg width="286" height="41" viewBox="0 0 286 41" fill="none" xmlns="http://www.w3.org/2000/svg">
<g clip-path="url(#clip0_1002_34466)">
<path d="M163.274 0L171.2 2.07814C172.037 2.2975 172.623 3.2038 172.575 4.15628L168.8 40.1311H281.975L286 0H163.274Z" fill="#FF0003"/>
<path d="M45.2997 14.2641L45.2228 14.9452C45.1603 15.5283 44.9246 16.0247 44.5206 16.4288C44.1166 16.8386 43.6694 17.0407 43.174 17.0407H41.3608L41.7119 13.8484C41.7552 13.4559 41.5196 13.0749 41.1733 12.9825L38.052 12.1628H43.7078C44.2032 12.1628 44.6072 12.3649 44.9246 12.7747C45.1555 13.0864 45.2853 13.4386 45.3094 13.8253C45.319 13.9639 45.3094 14.114 45.2901 14.2641M56.3565 7.32538C55.5534 6.26322 54.5145 5.73792 53.2352 5.73792H30.9581L27.7839 34.3758H39.4515L40.6587 23.4598H51.2922C52.5715 23.4598 53.7306 22.9345 54.7598 21.8781C55.7938 20.8217 56.3902 19.5518 56.5585 18.0567L57.3136 11.1353C57.3473 10.7485 57.3569 10.3849 57.3328 10.0327C57.2703 9.01675 56.9433 8.11623 56.3613 7.32538" fill="#FF0003"/>
<path d="M101.964 14.2641L101.887 14.9453C101.825 15.5283 101.589 16.0248 101.185 16.4289C100.776 16.8387 100.329 17.0408 99.8334 17.0408H98.0203L98.3618 13.9062C98.4051 13.5137 98.1646 13.1327 97.8231 13.0403L94.4902 12.1687H100.362C100.858 12.1687 101.262 12.3707 101.584 12.7806C101.829 13.0923 101.964 13.4502 101.988 13.8485C101.998 13.9755 101.988 14.1141 101.969 14.2699M113.002 7.33124C112.198 6.26908 111.155 5.74377 109.875 5.74377H87.5839L84.4771 34.3817H96.1591L97.3374 23.4657H99.1553C99.6507 23.4772 100.055 23.685 100.377 24.0949C100.608 24.4066 100.738 24.7703 100.766 25.1801C100.776 25.2956 100.771 25.4226 100.766 25.5669L100.54 31.8648C100.521 32.0495 100.521 32.2343 100.531 32.4074C100.56 32.875 100.709 33.2906 100.973 33.6486C101.339 34.1392 101.825 34.3817 102.431 34.3817H113.218L113.28 34.1912C112.612 33.839 112.251 33.2733 112.203 32.494C112.189 32.2978 112.198 32.0899 112.222 31.8821C112.203 30.947 112.194 30.006 112.194 29.0478C112.194 28.0895 112.189 27.1486 112.165 26.2134L112.145 25.9306C112.054 24.5105 111.54 23.4022 110.611 22.6056C112.145 21.5318 113.016 20.0194 113.232 18.0567L113.973 11.1354C114.007 10.7486 114.016 10.3849 113.992 10.0328C113.925 9.01684 113.598 8.11632 113.011 7.32547" fill="#FF0003"/>
<path d="M116.334 5.73792L115.642 12.1686H121.779L119.408 34.3816H131.075L133.254 13.9004C133.297 13.5078 133.057 13.1269 132.715 13.0345L129.416 12.1686H139.559L140.247 5.73792H116.339H116.334Z" fill="#FF0003"/>
<path d="M167.02 7.32538C166.213 6.26322 165.169 5.73792 163.89 5.73792H146.268C144.979 5.73792 143.82 6.26899 142.796 7.32538C141.766 8.38754 141.18 9.65751 141.026 11.1353L140.386 17.185C140.348 17.5198 140.338 17.8373 140.357 18.1259C140.449 19.4883 141.141 20.3426 142.435 20.6774L154.266 23.8754C154.656 23.9793 154.862 24.2391 154.891 24.6432C154.896 24.724 154.891 24.8164 154.882 24.9203L154.79 25.8324C154.728 26.4154 154.497 26.9118 154.098 27.3217C153.698 27.7315 153.251 27.9336 152.756 27.9336C152.26 27.9336 151.828 27.7315 151.52 27.3217C151.289 27.0157 151.159 26.6694 151.13 26.2711C151.121 26.1325 151.13 25.9824 151.145 25.8324L151.27 24.5739H139.593L139.131 28.9669C139.088 29.3652 139.078 29.7462 139.102 30.1041C139.169 31.1201 139.501 32.009 140.098 32.7826C140.896 33.8447 141.94 34.3758 143.228 34.3758H160.874C162.153 34.3758 163.308 33.8447 164.337 32.7941C165.366 31.7377 165.958 30.462 166.121 28.9727L166.751 22.923C166.79 22.5824 166.799 22.2707 166.78 21.9763C166.689 20.6255 166.001 19.7711 164.717 19.4248L152.871 16.2441C152.491 16.1286 152.285 15.8688 152.26 15.459C152.256 15.3782 152.256 15.2916 152.26 15.1934L152.347 14.4141L152.41 13.8138C152.448 13.427 152.217 13.0518 151.881 12.9537L148.894 12.1686H154.42C154.915 12.1686 155.319 12.3706 155.641 12.7805C155.872 13.0922 156.007 13.4443 156.031 13.8311C156.041 13.9696 156.031 14.1197 156.017 14.2698L155.892 15.5283H167.55L168.006 11.1411C168.04 10.7543 168.045 10.3906 168.021 10.0385C167.954 9.02253 167.622 8.122 167.035 7.33115" fill="#FF0003"/>
<path d="M28.0627 7.32538C27.2595 6.26322 26.2207 5.73792 24.9414 5.73792H7.31981C6.03089 5.73792 4.86702 6.26899 3.83781 7.32538C2.80379 8.38754 2.20743 9.65751 2.04391 11.1353L1.37059 17.185C1.33212 17.5198 1.31769 17.8373 1.33693 18.1259C1.41869 19.4883 2.10643 20.3426 3.40015 20.6774L15.212 23.8754C15.6016 23.9793 15.8084 24.2391 15.8324 24.6432C15.8372 24.724 15.8324 24.8164 15.818 24.9203L15.7218 25.8324C15.6545 26.4154 15.4236 26.9118 15.0196 27.3217C14.6157 27.7315 14.1684 27.9336 13.673 27.9336C13.1776 27.9336 12.7496 27.7315 12.4418 27.3217C12.211 27.0157 12.0859 26.6694 12.0619 26.2711C12.0522 26.1325 12.0619 25.9824 12.0811 25.8324L12.2158 24.5739H0.533757L0.0480086 28.9669C-8.53487e-05 29.3652 -0.00970413 29.7462 0.00953344 30.1041C0.0720555 31.1201 0.399094 32.009 0.990649 32.7826C1.7842 33.8447 2.82303 34.3758 4.11194 34.3758H21.7576C23.0369 34.3758 24.196 33.8447 25.23 32.7941C26.264 31.7377 26.8652 30.462 27.0335 28.9727L27.702 22.923C27.7405 22.5824 27.7501 22.2707 27.7357 21.9763C27.6491 20.6255 26.9662 19.7711 25.6869 19.4248L13.8606 16.2441C13.4806 16.1286 13.2786 15.8688 13.2546 15.459C13.2498 15.3782 13.2498 15.2916 13.2546 15.1934L13.346 14.4141L13.4133 13.8138C13.4566 13.427 13.2209 13.0518 12.8891 12.9537L9.90726 12.1686H15.4333C15.9286 12.1686 16.3326 12.3706 16.65 12.7805C16.8809 13.0922 17.0107 13.4443 17.0348 13.8311C17.0444 13.9696 17.0348 14.1197 17.0155 14.2698L16.8809 15.5283H28.5388L29.0198 11.1411C29.0583 10.7543 29.0631 10.3906 29.0438 10.0385C28.9813 9.02253 28.6591 8.122 28.0723 7.33115" fill="#FF0003"/>
<path d="M73.6703 13.8369C73.6799 13.9755 73.6703 14.1198 73.6511 14.2756L72.3958 25.867C72.3333 26.4501 72.0977 26.9465 71.6937 27.3564C71.2897 27.7662 70.8424 27.9683 70.347 27.9683C69.8517 27.9683 69.4333 27.7662 69.1255 27.3564C68.8946 27.0562 68.7647 26.7041 68.7407 26.3057C68.7311 26.1672 68.7407 26.0229 68.7599 25.867L69.717 17.0465L69.8853 15.4879L70.0152 14.2756C70.0152 14.2756 70.0152 14.2641 70.0152 14.2583L70.0585 13.8485C70.1018 13.4559 69.8613 13.0749 69.5198 12.9826L66.3985 12.1629H72.0544C72.5497 12.1629 72.9537 12.3649 73.2712 12.7748C73.502 13.0865 73.6318 13.4386 73.6559 13.8254C73.6559 13.8254 73.6559 13.8254 73.6559 13.8311M84.7127 7.32542C83.9047 6.26326 82.8659 5.73218 81.5818 5.73218H63.9361C62.6424 5.73218 61.4833 6.26326 60.4493 7.32542C59.4153 8.38758 58.8189 9.65755 58.665 11.1411L56.7076 29.0015C56.6643 29.3999 56.6499 29.7808 56.6739 30.1388C56.7365 31.1547 57.0683 32.0495 57.6599 32.823C58.4534 33.8852 59.4971 34.4163 60.7908 34.4163H78.4605C79.7446 34.4163 80.8988 33.8852 81.9329 32.8288C82.9669 31.7724 83.5632 30.4967 83.7316 29.0015L85.6649 11.1411C85.6986 10.7543 85.7082 10.3907 85.6842 10.0385C85.6169 9.02256 85.2946 8.12204 84.7079 7.32542" fill="#FF0003"/>
<path d="M208.352 5.73792H220.02L217.072 34.3758H205.39L208.352 5.73792Z" fill="white"/>
<path d="M261.357 5.73795L260.102 18.1433C260.438 18.0856 260.717 17.9355 260.929 17.6872C261.689 16.9195 262.376 15.5052 262.992 13.4502C263.603 11.3951 264.18 9.65755 264.723 8.23749C265.017 7.55055 265.478 6.96174 266.108 6.47107C266.738 5.9804 267.354 5.73795 267.96 5.73795H277.92L277.872 5.92845C276.756 6.39603 275.944 7.16378 275.439 8.23172C274.544 10.0385 273.544 12.3014 272.447 15.0261C271.351 17.7507 270.634 19.4248 270.307 20.0425C270.413 20.0886 270.793 20.1637 271.452 20.2676C272.111 20.3715 272.664 20.6197 273.116 21.018C273.582 21.4741 273.842 22.0513 273.89 22.7498L273.904 22.9749L274.02 31.8648C273.996 32.0726 273.991 32.2804 274.005 32.4767C274.063 33.2617 274.429 33.8274 275.097 34.1738L275.035 34.3643H264.262C263.656 34.3643 263.17 34.1218 262.8 33.6312C262.521 33.2675 262.367 32.8519 262.328 32.3728C262.314 32.2111 262.319 32.0379 262.338 31.8474L262.973 25.5495C262.982 25.411 262.982 25.2782 262.973 25.1454C262.944 24.7471 262.814 24.395 262.578 24.0775C262.266 23.6677 261.862 23.4598 261.366 23.4483C260.674 23.4829 260.029 23.8582 259.433 24.5682L258.442 34.3701H246.76L249.675 5.73218H261.342L261.357 5.73795Z" fill="white"/>
<path d="M246.799 7.32538C245.986 6.26322 244.942 5.73792 243.663 5.73792H226.041C224.752 5.73792 223.593 6.26899 222.569 7.32538C221.545 8.38177 220.958 9.65174 220.814 11.1353L218.981 28.9727C218.938 29.371 218.928 29.7462 218.957 30.1099C219.029 31.1258 219.361 32.0206 219.962 32.7883C220.765 33.8505 221.809 34.3816 223.103 34.3816H240.749C242.028 34.3816 243.182 33.8563 244.206 32.7999C245.231 31.7435 245.822 30.4678 245.976 28.9784L246.419 24.5855H234.756L234.631 25.8381C234.573 26.4212 234.342 26.9176 233.943 27.3275C233.842 27.4314 233.736 27.5237 233.626 27.5988C233.308 27.8297 232.962 27.9451 232.592 27.9451C232.087 27.9451 231.678 27.7431 231.37 27.3332C231.139 27.0331 231.005 26.6809 230.981 26.2826C230.971 26.1441 230.976 25.9998 230.995 25.8439L232.173 14.2698C232.173 14.2698 232.178 14.2525 232.183 14.241L232.217 13.9004C232.255 13.5136 232.019 13.1326 231.678 13.0403L228.35 12.1686H234.208C234.703 12.1686 235.107 12.3706 235.429 12.7805C235.665 13.098 235.795 13.4443 235.824 13.8311C235.833 13.9697 235.829 14.1197 235.809 14.2698L235.679 15.534H247.347L247.789 11.1468C247.823 10.7601 247.828 10.3964 247.799 10.0501C247.727 9.03407 247.395 8.13355 246.804 7.3427" fill="white"/>
<path d="M194.439 14.2641L194.367 14.9452C194.309 15.5283 194.078 16.0247 193.674 16.4288C193.275 16.8386 192.828 17.0407 192.332 17.0407H190.519L190.851 13.8484C190.89 13.4559 190.654 13.0749 190.308 12.9825L187.186 12.1628H192.842C193.338 12.1628 193.742 12.3649 194.064 12.7747C194.299 13.0864 194.429 13.4386 194.453 13.8253C194.463 13.9639 194.453 14.114 194.439 14.2641ZM205.462 7.32538C204.654 6.26322 203.606 5.73792 202.326 5.73792H180.049L177.053 34.3758H188.721L189.86 23.4598H200.494C201.773 23.4598 202.927 22.9345 203.952 21.8781C204.976 20.8217 205.568 19.5518 205.727 18.0567L206.438 11.1353C206.472 10.7485 206.477 10.3849 206.453 10.0327C206.381 9.01675 206.054 8.11623 205.462 7.32538Z" fill="white"/>
</g>
<defs>
<clipPath id="clip0_1002_34466">
<rect width="286" height="40.1311" fill="white"/>
</clipPath>
</defs>
</svg>
